<mxfile host="app.diagrams.net" modified="2020-11-30T07:18:09.096Z" agent="5.0 (X11; Linux x86_64) AppleWebKit/537.36 (KHTML, like Gecko) Chrome/86.0.4240.111 Safari/537.36" etag="DpmaoB3_hXmtZv4hvtzM" version="13.10.4" type="github">
  <diagram id="C6oIONwdJD1iTadpFMOF" name="Page-1">
    <mxGraphModel dx="797" dy="465" grid="1" gridSize="10" guides="1" tooltips="1" connect="1" arrows="1" fold="1" page="1" pageScale="1" pageWidth="850" pageHeight="1100" math="0" shadow="0">
      <root>
        <mxCell id="0" />
        <mxCell id="1" parent="0" />
        <mxCell id="38jMlDdEUiqClQhyQpLe-1" value="" style="rounded=0;whiteSpace=wrap;html=1;" vertex="1" parent="1">
          <mxGeometry x="110" y="100" width="100" height="50" as="geometry" />
        </mxCell>
        <mxCell id="38jMlDdEUiqClQhyQpLe-2" value="" style="ellipse;whiteSpace=wrap;html=1;aspect=fixed;" vertex="1" parent="1">
          <mxGeometry x="300" y="103.75" width="42.5" height="42.5" as="geometry" />
        </mxCell>
        <mxCell id="38jMlDdEUiqClQhyQpLe-4" value="" style="endArrow=none;html=1;exitX=0;exitY=0.5;exitDx=0;exitDy=0;entryX=1;entryY=0.5;entryDx=0;entryDy=0;" edge="1" parent="1" source="38jMlDdEUiqClQhyQpLe-2" target="38jMlDdEUiqClQhyQpLe-2">
          <mxGeometry width="50" height="50" relative="1" as="geometry">
            <mxPoint x="380" y="270" as="sourcePoint" />
            <mxPoint x="430" y="220" as="targetPoint" />
          </mxGeometry>
        </mxCell>
        <mxCell id="38jMlDdEUiqClQhyQpLe-5" value="Khối giải điều chế&amp;nbsp;&lt;br&gt;QPSK" style="rounded=0;whiteSpace=wrap;html=1;" vertex="1" parent="1">
          <mxGeometry x="425" y="101.25" width="110" height="48.75" as="geometry" />
        </mxCell>
        <mxCell id="38jMlDdEUiqClQhyQpLe-6" value="AWGN" style="rounded=0;whiteSpace=wrap;html=1;" vertex="1" parent="1">
          <mxGeometry x="273.75" y="200" width="95" height="40" as="geometry" />
        </mxCell>
        <mxCell id="38jMlDdEUiqClQhyQpLe-7" value="So sánh" style="rounded=0;whiteSpace=wrap;html=1;" vertex="1" parent="1">
          <mxGeometry x="261.25" y="280" width="120" height="40" as="geometry" />
        </mxCell>
        <mxCell id="38jMlDdEUiqClQhyQpLe-8" value="Đếm lỗi" style="rounded=0;whiteSpace=wrap;html=1;" vertex="1" parent="1">
          <mxGeometry x="261.25" y="350" width="120" height="40" as="geometry" />
        </mxCell>
        <mxCell id="38jMlDdEUiqClQhyQpLe-9" value="" style="endArrow=none;html=1;entryX=0.5;entryY=0;entryDx=0;entryDy=0;exitX=0.5;exitY=1;exitDx=0;exitDy=0;" edge="1" parent="1" source="38jMlDdEUiqClQhyQpLe-2" target="38jMlDdEUiqClQhyQpLe-2">
          <mxGeometry width="50" height="50" relative="1" as="geometry">
            <mxPoint x="380" y="270" as="sourcePoint" />
            <mxPoint x="430" y="220" as="targetPoint" />
          </mxGeometry>
        </mxCell>
        <mxCell id="38jMlDdEUiqClQhyQpLe-10" value="Khối điều chế&amp;nbsp;&lt;br&gt;QPSK" style="text;html=1;strokeColor=none;fillColor=none;align=center;verticalAlign=middle;whiteSpace=wrap;rounded=0;" vertex="1" parent="1">
          <mxGeometry x="120" y="111.25" width="80" height="20" as="geometry" />
        </mxCell>
        <mxCell id="38jMlDdEUiqClQhyQpLe-12" value="" style="endArrow=classic;html=1;entryX=0;entryY=0.5;entryDx=0;entryDy=0;" edge="1" parent="1" target="38jMlDdEUiqClQhyQpLe-1">
          <mxGeometry width="50" height="50" relative="1" as="geometry">
            <mxPoint x="10" y="125" as="sourcePoint" />
            <mxPoint x="430" y="200" as="targetPoint" />
          </mxGeometry>
        </mxCell>
        <mxCell id="38jMlDdEUiqClQhyQpLe-13" value="" style="endArrow=classic;html=1;exitX=1;exitY=0.5;exitDx=0;exitDy=0;entryX=0;entryY=0.5;entryDx=0;entryDy=0;" edge="1" parent="1" source="38jMlDdEUiqClQhyQpLe-1" target="38jMlDdEUiqClQhyQpLe-2">
          <mxGeometry width="50" height="50" relative="1" as="geometry">
            <mxPoint x="380" y="250" as="sourcePoint" />
            <mxPoint x="430" y="200" as="targetPoint" />
          </mxGeometry>
        </mxCell>
        <mxCell id="38jMlDdEUiqClQhyQpLe-15" value="" style="endArrow=classic;html=1;exitX=1;exitY=0.5;exitDx=0;exitDy=0;entryX=0;entryY=0.5;entryDx=0;entryDy=0;" edge="1" parent="1" source="38jMlDdEUiqClQhyQpLe-2" target="38jMlDdEUiqClQhyQpLe-5">
          <mxGeometry width="50" height="50" relative="1" as="geometry">
            <mxPoint x="380" y="250" as="sourcePoint" />
            <mxPoint x="430" y="200" as="targetPoint" />
          </mxGeometry>
        </mxCell>
        <mxCell id="38jMlDdEUiqClQhyQpLe-16" value="" style="endArrow=classic;html=1;exitX=1;exitY=0.5;exitDx=0;exitDy=0;" edge="1" parent="1" source="38jMlDdEUiqClQhyQpLe-5">
          <mxGeometry width="50" height="50" relative="1" as="geometry">
            <mxPoint x="380" y="250" as="sourcePoint" />
            <mxPoint x="640" y="126" as="targetPoint" />
          </mxGeometry>
        </mxCell>
        <mxCell id="38jMlDdEUiqClQhyQpLe-17" value="" style="endArrow=classic;html=1;entryX=0;entryY=0.5;entryDx=0;entryDy=0;" edge="1" parent="1" target="38jMlDdEUiqClQhyQpLe-7">
          <mxGeometry width="50" height="50" relative="1" as="geometry">
            <mxPoint x="50" y="130" as="sourcePoint" />
            <mxPoint x="50" y="300" as="targetPoint" />
            <Array as="points">
              <mxPoint x="50" y="300" />
            </Array>
          </mxGeometry>
        </mxCell>
        <mxCell id="38jMlDdEUiqClQhyQpLe-18" value="" style="endArrow=classic;html=1;entryX=1;entryY=0.5;entryDx=0;entryDy=0;" edge="1" parent="1" target="38jMlDdEUiqClQhyQpLe-7">
          <mxGeometry width="50" height="50" relative="1" as="geometry">
            <mxPoint x="580" y="130" as="sourcePoint" />
            <mxPoint x="430" y="200" as="targetPoint" />
            <Array as="points">
              <mxPoint x="580" y="300" />
            </Array>
          </mxGeometry>
        </mxCell>
        <mxCell id="38jMlDdEUiqClQhyQpLe-19" value="" style="endArrow=classic;html=1;exitX=0.5;exitY=0;exitDx=0;exitDy=0;" edge="1" parent="1" source="38jMlDdEUiqClQhyQpLe-6">
          <mxGeometry width="50" height="50" relative="1" as="geometry">
            <mxPoint x="380" y="250" as="sourcePoint" />
            <mxPoint x="320" y="150" as="targetPoint" />
          </mxGeometry>
        </mxCell>
        <mxCell id="38jMlDdEUiqClQhyQpLe-20" value="" style="endArrow=classic;html=1;exitX=0.5;exitY=1;exitDx=0;exitDy=0;entryX=0.5;entryY=0;entryDx=0;entryDy=0;" edge="1" parent="1" source="38jMlDdEUiqClQhyQpLe-7" target="38jMlDdEUiqClQhyQpLe-8">
          <mxGeometry width="50" height="50" relative="1" as="geometry">
            <mxPoint x="380" y="250" as="sourcePoint" />
            <mxPoint x="430" y="200" as="targetPoint" />
          </mxGeometry>
        </mxCell>
        <mxCell id="38jMlDdEUiqClQhyQpLe-21" value="s(t)" style="text;html=1;strokeColor=none;fillColor=none;align=center;verticalAlign=middle;whiteSpace=wrap;rounded=0;" vertex="1" parent="1">
          <mxGeometry x="221.25" y="91.25" width="40" height="20" as="geometry" />
        </mxCell>
        <mxCell id="38jMlDdEUiqClQhyQpLe-22" value="r(t)" style="text;html=1;strokeColor=none;fillColor=none;align=center;verticalAlign=middle;whiteSpace=wrap;rounded=0;" vertex="1" parent="1">
          <mxGeometry x="360" y="100" width="40" height="20" as="geometry" />
        </mxCell>
      </root>
    </mxGraphModel>
  </diagram>
</mxfile>
